<mxfile host="app.diagrams.net" modified="2024-01-30T11:17:31.225Z" agent="Mozilla/5.0 (Macintosh; Intel Mac OS X 10_15_7) AppleWebKit/537.36 (KHTML, like Gecko) Chrome/120.0.0.0 Safari/537.36" version="22.1.21" etag="EuZIfF4sQllHDqwABQ8B" type="github">
  <diagram name="Page-1" id="dfDn1ksanve5Ks_MKgIQ">
    <mxGraphModel>
      <root>
        <mxCell id="0" />
        <mxCell id="1" parent="0" />
      </root>
    </mxGraphModel>
  </diagram>
</mxfile>
